<svg width="274" height="107" viewBox="0 0 274 107" fill="none" xmlns="http://www.w3.org/2000/svg">
<path fill-rule="evenodd" clip-rule="evenodd" d="M0 0V2.05873V11.94H11.9874V39.9779C14.7819 42.8784 17.7755 45.5659 20.766 48.0236H26.2971V11.94H38.413V0H0.815875H0ZM20.766 48.0269H11.9874V39.9813C14.7819 42.8818 17.7787 45.5693 20.766 48.0269ZM24.7232 66.995H47.2655H47.2687H48.4796V56.9955H32.6506H24.7232C11.7015 56.9955 1.14029 68.0261 0.982895 81.6901L0.98931 81.6937C0.989128 81.7432 0.98521 81.7927 0.98129 81.8422C0.977276 81.8929 0.973262 81.9436 0.973262 81.9943L0.970047 81.9977C0.970047 95.7429 11.5088 106.892 24.5434 106.993L24.6911 106.997H24.7264H38.9816V96.9971H24.7072C18.4886 96.9869 13.2048 92.7545 11.2711 86.8927L11.2636 86.8893C10.7568 85.3521 10.4681 83.7104 10.4681 81.9943C10.4681 73.7256 16.8633 66.995 24.7232 66.995ZM100.743 82.2276V86.9975H95.9924V102.271C92.7193 102.092 89.5586 101.902 86.4879 101.706V86.9975H72.8045C64.9253 86.9975 58.4787 80.4866 58.0258 72.3092L58.018 72.1901L58.0136 72.1244L58.0136 72.1243C57.9972 71.8825 57.9809 71.6416 57.9809 71.3964V56.9955H67.4821V71.3964C67.4821 74.4862 69.8687 76.9979 72.8045 76.9979H86.4879V56.9988H95.9924V76.9979H100.743V82.2276ZM48.4796 106.997V101.997C48.4796 100.503 48.2644 99.0592 47.8757 97.6968C46.1155 91.5139 40.6679 86.9941 34.2277 86.9941H29.4771V76.9946H34.2245C46.4335 76.9946 56.4808 86.6933 57.8171 99.164C57.9198 100.094 57.9809 101.037 57.9809 101.997V106.997H48.4796ZM86.4879 107H95.9923V102.274C92.7193 102.095 89.5586 101.906 86.4879 101.709V107ZM105.494 107H114.995V103.221L114.998 103.221V86.9975H129.25V84.479L129.247 84.4789V76.9946H114.995V72.5965C114.995 69.5067 117.381 66.995 120.317 66.995H148.253V65.6766L148.253 56.9955H120.317C117.096 56.9955 114.118 58.0941 111.683 59.9399C107.941 62.7727 105.494 67.3838 105.494 72.5965V82.7178L105.497 82.7181V102.768L106.603 102.822C106.232 102.804 105.862 102.786 105.494 102.768V107ZM108.959 83.043C114.418 83.5121 120.159 83.9203 126.217 84.2955C120.159 83.9209 114.415 83.5146 108.959 83.043ZM197.551 87.89H183.444V87.1699C187.999 87.393 192.698 87.633 197.551 87.89ZM242.844 70.9603L242.851 70.9623C242.836 70.9891 242.821 71.0153 242.806 71.0415C242.79 71.0684 242.775 71.0953 242.759 71.1229L242.758 71.1228L242.758 71.1226H242.755L242.758 71.1228C242.744 71.1456 242.731 71.1684 242.719 71.1911L242.706 71.2129C242.691 71.2399 242.676 71.267 242.662 71.294L242.66 71.2973L242.658 71.3008L242.654 71.3074C242.629 71.3535 242.604 71.3995 242.577 71.4456C242.545 71.5023 242.512 71.559 242.475 71.6162C241.454 73.1847 240.204 74.6857 238.727 76.119C237.249 77.5523 235.225 79.3812 232.662 81.6123C232.739 81.5583 232.335 81.8997 231.445 82.6434V87.89H251.148V82.1498H240.551C243.506 79.7531 245.941 77.2954 247.852 74.777C248.378 74.0815 248.827 73.3692 249.206 72.6401L249.208 72.6405C249.381 72.3092 249.542 71.9745 249.683 71.6365L249.677 71.636C250.361 70.027 250.711 68.3437 250.711 66.5792C250.711 63.8815 249.917 61.691 248.337 60.0109H248.34C246.757 58.3307 244.409 57.4924 241.293 57.4924C239.488 57.4924 237.847 57.8642 236.366 58.6079C234.888 59.3517 233.697 60.5078 232.794 62.0763C232.007 63.4455 231.561 65.129 231.422 67.0863L231.425 67.0874C231.419 67.1863 231.41 67.284 231.401 67.3819C231.385 67.5635 231.369 67.7459 231.365 67.9382H233.71L233.729 67.9449H237.837C237.837 66.5116 238.116 65.4062 238.682 64.6185C239.244 63.8342 240.021 63.4421 241.017 63.4421C242.013 63.4421 242.755 63.7598 243.252 64.392C243.75 65.0241 243.998 65.9065 243.998 67.0356C243.998 68.3134 243.596 69.6217 242.844 70.9603ZM270.471 73.5718L271.043 73.6377C270.799 74.0231 270.545 74.4017 270.259 74.777C269.903 75.2502 269.511 75.7167 269.116 76.1832L269.11 76.1826C267.399 78.2133 265.36 80.2035 262.958 82.1498H273.555V87.89H253.852V82.6434C254.742 81.8997 255.147 81.5583 255.07 81.6123C257.633 79.3812 259.656 77.5523 261.134 76.119H261.131C261.445 75.8148 261.744 75.5038 262.04 75.1927L262.045 75.1936C262.754 74.4406 263.409 73.6707 263.996 72.8839C264.18 72.9018 264.365 72.9185 264.551 72.9349L264.668 72.9453C264.968 72.9718 265.268 72.9983 265.563 73.0292C267.19 73.1937 268.803 73.3799 270.415 73.5658L270.416 73.5659L270.416 73.5659L270.416 73.5659L270.416 73.5659L270.417 73.566L270.42 73.5664L270.421 73.5665L270.423 73.5666L270.424 73.5668L270.425 73.5669L270.426 73.567L270.428 73.5672L270.429 73.5673L270.43 73.5675L270.432 73.5676L270.433 73.5677L270.434 73.5679L270.435 73.568L270.437 73.5681L270.438 73.5683L270.439 73.5684L270.441 73.5686L270.442 73.5687L270.443 73.5688L270.444 73.569L270.446 73.5691L270.447 73.5692L270.448 73.5694L270.449 73.5695L270.451 73.5696L270.452 73.5698L270.453 73.5699L270.455 73.5701L270.456 73.5702L270.457 73.5703L270.458 73.5705L270.46 73.5706L270.461 73.5707L270.462 73.5709L270.464 73.571L270.465 73.5712L270.466 73.5713L270.467 73.5714L270.469 73.5716L270.47 73.5717L270.471 73.5718ZM58.8546 20.7564H56.5868V16.8992C53.9337 11.7743 52.4208 6.12211 53.105 0H42.2803V48.0236H56.5868V30.7931H56.6511L65.2241 48.0236H80.9503L76.746 40.2354L76.7489 40.2382L71.0282 29.6437C74.2082 28.5586 76.6461 26.7737 78.3453 24.2856H78.3421C80.0381 21.8009 80.8893 18.9512 80.8893 15.7397C80.8893 12.7547 80.234 10.0773 78.9235 7.70081C77.613 5.32769 75.6472 3.4515 73.0262 2.06887C70.4051 0.689623 67.2477 0 63.5506 0H53.1082C52.424 6.12211 53.9369 11.7743 56.59 16.8992V12.6161H62.2625C63.5923 12.6161 64.6138 12.9778 65.3236 13.7012C66.0335 14.4246 66.3868 15.4219 66.3868 16.6862C66.3868 18.0891 66.0431 19.1168 65.3558 19.7726C64.6684 20.4284 63.6373 20.7564 62.2625 20.7564H58.8577C63.2828 27.5365 69.3586 33.259 74.1465 37.7685L74.1323 37.7552C69.3455 33.248 63.2736 27.5309 58.8546 20.753V20.7564ZM85.4233 48.027H82.2416L82.9209 46.071L82.9193 46.0696L98.9314 0.00338745H107.321C108.654 7.46655 112.945 13.8841 116.456 19.1362L116.456 19.1363L116.456 19.1364L116.456 19.1364L116.456 19.1366C117.471 20.655 118.421 22.0759 119.216 23.3965C120.995 26.3545 123.404 28.9845 126.282 31.3475L132.057 48.027H116.977L114.722 40.769H99.5128L99.5096 40.7724L97.2547 48.0303H85.4279L85.4233 48.027ZM203.147 82.1498H192.55C195.505 79.7531 197.94 77.2954 199.851 74.7769C201.264 72.9109 202.151 70.9299 202.52 68.8306L202.514 68.8303C202.642 68.0934 202.71 67.3431 202.71 66.5758C202.71 63.8782 201.916 61.6876 200.336 60.0075L200.343 60.0109C198.759 58.3307 196.411 57.4924 193.295 57.4924C191.49 57.4924 189.849 57.8642 188.368 58.6079C186.89 59.3517 185.699 60.5078 184.796 62.0763C183.903 63.6314 183.425 65.5684 183.367 67.8807L183.37 67.8807C183.37 67.9011 183.367 67.9214 183.367 67.9418H184.558L184.555 67.9415H189.839C189.839 66.5082 190.119 65.4028 190.684 64.6151C191.246 63.8308 192.023 63.4387 193.019 63.4387C194.015 63.4387 194.757 63.7565 195.255 64.3886C195.752 65.0208 196 65.9031 196 67.0322C196 67.5156 195.926 68.0058 195.817 68.4993L195.823 68.4996C195.598 69.5204 195.165 70.5582 194.477 71.6162C193.456 73.1847 192.206 74.6857 190.729 76.119C189.251 77.5523 187.228 79.3812 184.664 81.6123C184.742 81.5582 184.337 81.8997 183.447 82.6434V87.1699C188.002 87.393 192.701 87.633 197.554 87.8899H203.15V82.1498H203.147ZM221.401 69.8078C221.494 70.7171 221.552 71.7008 221.552 72.8163C221.552 74.6891 221.449 76.2373 221.237 77.4645C221.028 78.6916 220.604 79.6821 219.962 80.4393C219.319 81.1965 218.372 81.5752 217.116 81.5752C215.86 81.5752 214.912 81.1965 214.27 80.4393C213.628 79.6821 213.204 78.6916 212.995 77.4645C212.786 76.2407 212.683 74.6924 212.683 72.8163C212.683 71.5215 212.751 70.3755 212.876 69.358C210.656 69.243 208.469 69.1315 206.307 69.0233C206.166 70.2099 206.089 71.4674 206.089 72.8163C206.089 77.6065 206.959 81.3656 208.697 84.0937C210.438 86.8183 213.242 88.1841 217.116 88.1841C220.99 88.1841 223.794 86.8217 225.535 84.0937C227.272 81.3656 228.143 77.6065 228.143 72.8163C228.143 71.8968 228.101 71.0246 228.034 70.1795C227.97 70.1764 227.908 70.1727 227.847 70.1686C227.804 70.1658 227.763 70.1629 227.721 70.1598L227.644 70.1543L227.643 70.1542L227.619 70.1524C225.52 70.0342 223.449 69.9193 221.401 69.8078ZM264.921 57.5701L264.952 57.5794C266.566 57.7127 267.959 58.0934 269.098 58.7476L269.119 58.7533C269.723 59.1049 270.282 59.5072 270.751 60.0041C272.331 61.6842 273.125 63.8748 273.125 66.5725C273.125 69.0808 272.424 71.4336 271.04 73.631C269.219 73.418 267.397 73.2084 265.56 73.0225C265.3 72.9971 265.038 72.9735 264.776 72.9498L264.773 72.9495C264.513 72.9259 264.252 72.9024 263.993 72.8771C264.307 72.4613 264.603 72.0388 264.882 71.6128C265.901 70.0443 266.411 68.5163 266.411 67.0288C266.411 65.8997 266.164 65.0174 265.666 64.3853C265.168 63.7531 264.426 63.4353 263.431 63.4353C262.435 63.4353 261.658 63.8275 261.095 64.6118C260.53 65.3994 260.251 66.5049 260.251 67.9382H253.775C253.826 65.5989 254.305 63.6415 255.208 62.073C256.11 60.5044 257.302 59.3483 258.779 58.6046C260.26 57.8609 261.902 57.489 263.707 57.489V57.4823C264.019 57.4823 264.307 57.5108 264.594 57.5394C264.703 57.5501 264.811 57.5609 264.921 57.5701ZM225.538 61.62C223.797 58.8953 220.99 57.5296 217.119 57.5296C215.638 57.5296 214.315 57.7324 213.146 58.1313C211.257 58.777 209.773 59.9365 208.7 61.62C207.457 63.5706 206.664 66.0417 206.311 69.0199C208.469 69.1281 210.656 69.2397 212.879 69.3546C213.024 68.1883 213.242 67.1911 213.547 66.3899C214.122 64.889 215.314 64.1385 217.119 64.1385C218.924 64.1385 220.113 64.889 220.691 66.3899C221.035 67.2891 221.266 68.4453 221.404 69.8042C223.453 69.9158 225.525 70.0307 227.626 70.149C227.764 70.1558 227.901 70.1659 228.039 70.176L228.04 70.1761C227.899 68.381 227.616 66.7516 227.179 65.3014C226.765 63.9221 226.222 62.6882 225.538 61.62ZM111.246 29.4409L107.119 16.0777L102.995 29.4409H111.246ZM135.285 48.0269H149.592V42.4998L149.592 1.51109V0H147.896H135.285V37.0808V37.0842V48.0269ZM170.342 48.027H156.035V44.1326C160.587 45.1535 165.376 45.9885 170.342 46.6376V48.027ZM272.498 38.4669V38.462L272.501 38.4635L272.498 38.4669ZM271.723 38.1066C271.983 38.2249 272.242 38.3433 272.498 38.4669V38.4702V48.0303H242.099L242.093 48.0269H242.08V48.0188L242.077 48.0168V32.1013C246.76 32.3786 251.54 32.6388 256.383 32.9025V36.0227H267.68L267.992 36.1916L267.993 36.1923L267.993 36.1925C268.894 36.6805 269.795 37.1687 270.722 37.6352C271.048 37.7994 271.385 37.9528 271.722 38.1064L271.723 38.1066ZM272.498 36.0194V38.462C272.262 38.3492 272.022 38.2396 271.782 38.1301L271.781 38.1297L271.781 38.1296C271.425 37.9674 271.069 37.805 270.725 37.6319C269.691 37.1113 268.685 36.567 267.683 36.0194H272.498ZM208.607 29.3259C211.424 29.664 214.276 29.9682 217.158 30.2455L217.153 30.2416C214.274 29.9612 211.423 29.6605 208.607 29.3226V29.3259ZM206.243 29.0318V48.0269H236.661H236.664V44.8628C232.229 42.1144 228.056 39.1497 224.089 36.0227H220.55L220.55 33.1493V30.5429L220.55 29.2381H234.728V17.91H220.55V12.0076H236.42C235.938 11.5407 235.461 11.0696 234.984 10.5993L234.983 10.5983L234.612 10.2328L234.616 10.2336L234.986 10.5982L234.987 10.5989C235.464 11.0693 235.942 11.5406 236.424 12.0076H236.664V10.6114L236.664 0.00338745H224.497L224.494 0H224.491H207.811C214.403 4.90042 224.418 8.25002 234.607 10.2278C234.609 10.2295 234.61 10.2312 234.612 10.2328C224.423 8.25522 214.402 4.90175 207.807 0.00338745H206.243V20.016V20.0194V29.0318ZM224.089 36.0194C228.056 39.1464 232.229 42.1111 236.664 44.8594V36.0194H224.089ZM199.796 48.027H198.332V48.0303L198.323 48.0236H185.487L170.342 23.8766V46.6342C165.376 45.9851 160.587 45.1501 156.035 44.1292V7.60954V7.60277V0.00338745H158.679C158.974 1.56518 159.328 3.08979 159.7 4.57384C162.883 17.2406 180.203 24.6 199.796 28.0447V48.027ZM126.285 31.3475L115.432 0H107.321C108.657 7.46617 112.946 13.8826 116.457 19.134C117.471 20.652 118.421 22.0726 119.216 23.3932C120.998 26.3545 123.404 28.9845 126.282 31.3441L126.285 31.3475ZM256.801 29.2381H270.565V17.91H256.387V13.0048C251.588 12.5687 246.811 12.0651 242.08 11.443V17.3285V32.1014C246.763 32.3786 251.543 32.6389 256.387 32.9025V32.8992V29.2381L256.801 29.2381ZM199.796 13.5323V13.5356H199.8L199.796 13.5323ZM199.796 0V13.5323C198.423 12.1322 197.057 10.7298 195.692 9.32907L195.691 9.32856L195.691 9.32813L195.691 9.32795L195.69 9.32783C193.059 6.6275 190.433 3.93341 187.78 1.27446C187.517 1.01176 187.255 0.757642 186.993 0.503984V0.503965L186.993 0.503159L186.992 0.502469C186.82 0.33556 186.648 0.168842 186.476 0H199.796ZM199.796 28.0414V13.5356C198.484 12.1963 197.177 10.8549 195.871 9.51481C193.178 6.75188 190.491 3.99478 187.777 1.27446C187.476 0.971816 187.175 0.680566 186.873 0.388286L186.87 0.385832L186.864 0.379418L186.861 0.376726L186.86 0.375542L186.859 0.375026C186.731 0.250558 186.602 0.125869 186.473 0H185.487V24.5561L170.342 0H158.679C158.974 1.56518 159.328 3.0898 159.7 4.57046C162.883 17.2372 180.2 24.5966 199.796 28.0414ZM272.498 0H262.509H242.077V11.4397C246.811 12.0617 251.584 12.5654 256.383 13.0015V12.0076H256.387H272.498V9.34713V0Z" fill="white"/>
</svg>
